<mxfile host="app.diagrams.net" modified="2024-07-18T05:04:34.997Z" agent="Mozilla/5.0 (Windows NT 10.0; Win64; x64) AppleWebKit/537.36 (KHTML, like Gecko) Chrome/126.0.0.0 Safari/537.36 Edg/126.0.0.0" etag="iQjbYAx6ndezsQPu3cln" version="24.7.1" type="onedrive">
  <diagram name="ページ1" id="di-sTC7rzIOTYgS8-aZU">
    <mxGraphModel grid="0" page="0" gridSize="10" guides="1" tooltips="1" connect="1" arrows="1" fold="1" pageScale="1" pageWidth="827" pageHeight="1169" math="0" shadow="0">
      <root>
        <mxCell id="0" />
        <mxCell id="1" parent="0" />
        <mxCell id="NP9wviJK9l_1FWx1kQtK-5" style="edgeStyle=none;curved=1;rounded=0;orthogonalLoop=1;jettySize=auto;html=1;exitX=0.5;exitY=1;exitDx=0;exitDy=0;entryX=0.5;entryY=0;entryDx=0;entryDy=0;fontSize=12;startSize=8;endSize=8;" edge="1" parent="1" source="NP9wviJK9l_1FWx1kQtK-1" target="NP9wviJK9l_1FWx1kQtK-4">
          <mxGeometry relative="1" as="geometry" />
        </mxCell>
        <mxCell id="NP9wviJK9l_1FWx1kQtK-1" value="insert(node, number, name, profile)関数&lt;div&gt;開始&lt;/div&gt;" style="rounded=0;whiteSpace=wrap;html=1;" vertex="1" parent="1">
          <mxGeometry x="5" y="-51" width="120" height="60" as="geometry" />
        </mxCell>
        <mxCell id="NP9wviJK9l_1FWx1kQtK-15" style="edgeStyle=none;curved=1;rounded=0;orthogonalLoop=1;jettySize=auto;html=1;exitX=0.5;exitY=1;exitDx=0;exitDy=0;entryX=0.5;entryY=0;entryDx=0;entryDy=0;fontSize=12;startSize=8;endSize=8;" edge="1" parent="1" source="NP9wviJK9l_1FWx1kQtK-2" target="NP9wviJK9l_1FWx1kQtK-12">
          <mxGeometry relative="1" as="geometry" />
        </mxCell>
        <mxCell id="NP9wviJK9l_1FWx1kQtK-2" value="else" style="rhombus;whiteSpace=wrap;html=1;" vertex="1" parent="1">
          <mxGeometry x="151" y="32" width="136" height="80" as="geometry" />
        </mxCell>
        <mxCell id="NP9wviJK9l_1FWx1kQtK-13" style="edgeStyle=none;curved=1;rounded=0;orthogonalLoop=1;jettySize=auto;html=1;exitX=0.5;exitY=1;exitDx=0;exitDy=0;fontSize=12;startSize=8;endSize=8;" edge="1" parent="1" source="NP9wviJK9l_1FWx1kQtK-3" target="NP9wviJK9l_1FWx1kQtK-10">
          <mxGeometry relative="1" as="geometry" />
        </mxCell>
        <mxCell id="NP9wviJK9l_1FWx1kQtK-3" value="if&amp;nbsp;&lt;div&gt;node is None&lt;/div&gt;" style="rhombus;whiteSpace=wrap;html=1;" vertex="1" parent="1">
          <mxGeometry x="-158" y="32" width="136" height="80" as="geometry" />
        </mxCell>
        <mxCell id="NP9wviJK9l_1FWx1kQtK-14" style="edgeStyle=none;curved=1;rounded=0;orthogonalLoop=1;jettySize=auto;html=1;exitX=0.5;exitY=1;exitDx=0;exitDy=0;entryX=0.5;entryY=0;entryDx=0;entryDy=0;fontSize=12;startSize=8;endSize=8;" edge="1" parent="1" source="NP9wviJK9l_1FWx1kQtK-4" target="NP9wviJK9l_1FWx1kQtK-11">
          <mxGeometry relative="1" as="geometry" />
        </mxCell>
        <mxCell id="NP9wviJK9l_1FWx1kQtK-4" value="if&amp;nbsp;&lt;div&gt;number &amp;lt; node.number&lt;/div&gt;" style="rhombus;whiteSpace=wrap;html=1;" vertex="1" parent="1">
          <mxGeometry x="-3" y="32" width="136" height="80" as="geometry" />
        </mxCell>
        <mxCell id="NP9wviJK9l_1FWx1kQtK-6" value="" style="endArrow=none;html=1;rounded=0;fontSize=12;startSize=8;endSize=8;curved=1;entryX=0;entryY=0.5;entryDx=0;entryDy=0;" edge="1" parent="1" target="NP9wviJK9l_1FWx1kQtK-1">
          <mxGeometry width="50" height="50" relative="1" as="geometry">
            <mxPoint x="-91" y="-21" as="sourcePoint" />
            <mxPoint x="-14" y="-9" as="targetPoint" />
          </mxGeometry>
        </mxCell>
        <mxCell id="NP9wviJK9l_1FWx1kQtK-7" value="" style="endArrow=none;html=1;rounded=0;fontSize=12;startSize=8;endSize=8;curved=1;entryX=1;entryY=0.5;entryDx=0;entryDy=0;" edge="1" parent="1" target="NP9wviJK9l_1FWx1kQtK-1">
          <mxGeometry width="50" height="50" relative="1" as="geometry">
            <mxPoint x="218" y="-21" as="sourcePoint" />
            <mxPoint x="81" y="178" as="targetPoint" />
          </mxGeometry>
        </mxCell>
        <mxCell id="NP9wviJK9l_1FWx1kQtK-8" value="" style="endArrow=classic;html=1;rounded=0;fontSize=12;startSize=8;endSize=8;curved=1;entryX=0.5;entryY=0;entryDx=0;entryDy=0;" edge="1" parent="1" target="NP9wviJK9l_1FWx1kQtK-3">
          <mxGeometry width="50" height="50" relative="1" as="geometry">
            <mxPoint x="-91" y="-26" as="sourcePoint" />
            <mxPoint x="81" y="178" as="targetPoint" />
          </mxGeometry>
        </mxCell>
        <mxCell id="NP9wviJK9l_1FWx1kQtK-9" value="" style="endArrow=classic;html=1;rounded=0;fontSize=12;startSize=8;endSize=8;curved=1;entryX=0.5;entryY=0;entryDx=0;entryDy=0;" edge="1" parent="1" target="NP9wviJK9l_1FWx1kQtK-2">
          <mxGeometry width="50" height="50" relative="1" as="geometry">
            <mxPoint x="219" y="-19" as="sourcePoint" />
            <mxPoint x="81" y="178" as="targetPoint" />
          </mxGeometry>
        </mxCell>
        <mxCell id="NP9wviJK9l_1FWx1kQtK-10" value="return Node(number, name, profile)" style="rounded=1;whiteSpace=wrap;html=1;" vertex="1" parent="1">
          <mxGeometry x="-150" y="135" width="120" height="60" as="geometry" />
        </mxCell>
        <mxCell id="NP9wviJK9l_1FWx1kQtK-26" style="edgeStyle=none;curved=1;rounded=0;orthogonalLoop=1;jettySize=auto;html=1;exitX=0.5;exitY=1;exitDx=0;exitDy=0;fontSize=12;startSize=8;endSize=8;" edge="1" parent="1" source="NP9wviJK9l_1FWx1kQtK-11" target="NP9wviJK9l_1FWx1kQtK-20">
          <mxGeometry relative="1" as="geometry" />
        </mxCell>
        <UserObject label="node.left = insert(node.left, number, name, profile)" link="node.left = insert(node.left, number, name, profile)" id="NP9wviJK9l_1FWx1kQtK-11">
          <mxCell style="rounded=1;whiteSpace=wrap;html=1;" vertex="1" parent="1">
            <mxGeometry x="5" y="135" width="120" height="60" as="geometry" />
          </mxCell>
        </UserObject>
        <mxCell id="NP9wviJK9l_1FWx1kQtK-12" value="node.right = insert(node.right, number, name, profile)" style="rounded=1;whiteSpace=wrap;html=1;" vertex="1" parent="1">
          <mxGeometry x="159" y="135" width="120" height="60" as="geometry" />
        </mxCell>
        <mxCell id="NP9wviJK9l_1FWx1kQtK-30" style="edgeStyle=none;curved=1;rounded=0;orthogonalLoop=1;jettySize=auto;html=1;exitX=0.5;exitY=1;exitDx=0;exitDy=0;fontSize=12;startSize=8;endSize=8;" edge="1" parent="1" source="NP9wviJK9l_1FWx1kQtK-20" target="NP9wviJK9l_1FWx1kQtK-29">
          <mxGeometry relative="1" as="geometry" />
        </mxCell>
        <mxCell id="NP9wviJK9l_1FWx1kQtK-20" value="return node" style="rounded=1;whiteSpace=wrap;html=1;" vertex="1" parent="1">
          <mxGeometry x="5" y="218" width="120" height="60" as="geometry" />
        </mxCell>
        <mxCell id="NP9wviJK9l_1FWx1kQtK-24" value="" style="endArrow=none;html=1;rounded=0;fontSize=12;startSize=8;endSize=8;curved=1;exitX=0.5;exitY=1;exitDx=0;exitDy=0;" edge="1" parent="1" source="NP9wviJK9l_1FWx1kQtK-10">
          <mxGeometry width="50" height="50" relative="1" as="geometry">
            <mxPoint x="-34" y="254" as="sourcePoint" />
            <mxPoint x="-90" y="212" as="targetPoint" />
          </mxGeometry>
        </mxCell>
        <mxCell id="NP9wviJK9l_1FWx1kQtK-25" value="" style="endArrow=none;html=1;rounded=0;fontSize=12;startSize=8;endSize=8;curved=1;exitX=0.5;exitY=1;exitDx=0;exitDy=0;" edge="1" parent="1">
          <mxGeometry width="50" height="50" relative="1" as="geometry">
            <mxPoint x="220" y="193" as="sourcePoint" />
            <mxPoint x="220" y="210" as="targetPoint" />
          </mxGeometry>
        </mxCell>
        <mxCell id="NP9wviJK9l_1FWx1kQtK-27" value="" style="endArrow=none;html=1;rounded=0;fontSize=12;startSize=8;endSize=8;curved=1;" edge="1" parent="1">
          <mxGeometry width="50" height="50" relative="1" as="geometry">
            <mxPoint x="-91" y="210" as="sourcePoint" />
            <mxPoint x="67" y="210" as="targetPoint" />
          </mxGeometry>
        </mxCell>
        <mxCell id="NP9wviJK9l_1FWx1kQtK-28" value="" style="endArrow=none;html=1;rounded=0;fontSize=12;startSize=8;endSize=8;curved=1;exitX=0.514;exitY=-0.139;exitDx=0;exitDy=0;exitPerimeter=0;" edge="1" parent="1" source="NP9wviJK9l_1FWx1kQtK-20">
          <mxGeometry width="50" height="50" relative="1" as="geometry">
            <mxPoint x="171" y="259" as="sourcePoint" />
            <mxPoint x="221" y="209" as="targetPoint" />
          </mxGeometry>
        </mxCell>
        <mxCell id="NP9wviJK9l_1FWx1kQtK-29" value="終了" style="rounded=0;whiteSpace=wrap;html=1;" vertex="1" parent="1">
          <mxGeometry x="5" y="301" width="120" height="60" as="geometry" />
        </mxCell>
      </root>
    </mxGraphModel>
  </diagram>
</mxfile>
